<mxfile host="Electron" modified="2023-07-20T17:02:34.299Z" agent="Mozilla/5.0 (Windows NT 10.0; Win64; x64) AppleWebKit/537.36 (KHTML, like Gecko) draw.io/21.2.1 Chrome/112.0.5615.87 Electron/24.1.2 Safari/537.36" etag="lCiLAakm7UQY5cGXv0Cb" version="21.2.1" type="device">
  <diagram name="Seite-1" id="lHFhSfv_o7h7nzArvlQM">
    <mxGraphModel dx="1715" dy="683" grid="1" gridSize="10" guides="1" tooltips="1" connect="1" arrows="1" fold="1" page="1" pageScale="1" pageWidth="827" pageHeight="1169" math="0" shadow="0">
      <root>
        <mxCell id="0" />
        <mxCell id="1" parent="0" />
        <mxCell id="IYTHiTb0G3vbG2GKmtK8-39" value="" style="endArrow=classic;startArrow=classic;html=1;rounded=0;exitX=1.153;exitY=0.046;exitDx=0;exitDy=0;exitPerimeter=0;" edge="1" parent="1" source="IYTHiTb0G3vbG2GKmtK8-28">
          <mxGeometry width="50" height="50" relative="1" as="geometry">
            <mxPoint x="480" y="150" as="sourcePoint" />
            <mxPoint x="530" y="150" as="targetPoint" />
          </mxGeometry>
        </mxCell>
        <mxCell id="IYTHiTb0G3vbG2GKmtK8-1" value="ROM" style="whiteSpace=wrap;html=1;aspect=fixed;" vertex="1" parent="1">
          <mxGeometry x="680" y="120" width="80" height="80" as="geometry" />
        </mxCell>
        <mxCell id="IYTHiTb0G3vbG2GKmtK8-2" value="RAM" style="whiteSpace=wrap;html=1;aspect=fixed;" vertex="1" parent="1">
          <mxGeometry x="680" y="240" width="80" height="80" as="geometry" />
        </mxCell>
        <mxCell id="IYTHiTb0G3vbG2GKmtK8-35" style="edgeStyle=orthogonalEdgeStyle;rounded=0;orthogonalLoop=1;jettySize=auto;html=1;exitX=0;exitY=0.75;exitDx=0;exitDy=0;entryX=1.084;entryY=0.577;entryDx=0;entryDy=0;entryPerimeter=0;" edge="1" parent="1" source="IYTHiTb0G3vbG2GKmtK8-3" target="IYTHiTb0G3vbG2GKmtK8-27">
          <mxGeometry relative="1" as="geometry" />
        </mxCell>
        <mxCell id="IYTHiTb0G3vbG2GKmtK8-37" style="edgeStyle=orthogonalEdgeStyle;rounded=0;orthogonalLoop=1;jettySize=auto;html=1;entryX=1.045;entryY=0.556;entryDx=0;entryDy=0;entryPerimeter=0;" edge="1" parent="1" source="IYTHiTb0G3vbG2GKmtK8-3" target="IYTHiTb0G3vbG2GKmtK8-26">
          <mxGeometry relative="1" as="geometry" />
        </mxCell>
        <mxCell id="IYTHiTb0G3vbG2GKmtK8-3" value="GPRs" style="shape=process;whiteSpace=wrap;html=1;backgroundOutline=1;" vertex="1" parent="1">
          <mxGeometry x="530" y="360" width="110" height="40" as="geometry" />
        </mxCell>
        <mxCell id="IYTHiTb0G3vbG2GKmtK8-21" style="edgeStyle=orthogonalEdgeStyle;rounded=0;orthogonalLoop=1;jettySize=auto;html=1;exitX=1;exitY=0.5;exitDx=0;exitDy=0;entryX=0;entryY=0.5;entryDx=0;entryDy=0;shape=flexArrow;" edge="1" parent="1" source="IYTHiTb0G3vbG2GKmtK8-4" target="IYTHiTb0G3vbG2GKmtK8-1">
          <mxGeometry relative="1" as="geometry" />
        </mxCell>
        <mxCell id="IYTHiTb0G3vbG2GKmtK8-29" style="edgeStyle=orthogonalEdgeStyle;rounded=0;orthogonalLoop=1;jettySize=auto;html=1;exitX=0;exitY=0.75;exitDx=0;exitDy=0;entryX=1.084;entryY=0.09;entryDx=0;entryDy=0;entryPerimeter=0;" edge="1" parent="1" source="IYTHiTb0G3vbG2GKmtK8-4" target="IYTHiTb0G3vbG2GKmtK8-27">
          <mxGeometry relative="1" as="geometry" />
        </mxCell>
        <mxCell id="IYTHiTb0G3vbG2GKmtK8-30" style="edgeStyle=orthogonalEdgeStyle;rounded=0;orthogonalLoop=1;jettySize=auto;html=1;exitX=0;exitY=0.5;exitDx=0;exitDy=0;entryX=1.016;entryY=0.066;entryDx=0;entryDy=0;entryPerimeter=0;" edge="1" parent="1" source="IYTHiTb0G3vbG2GKmtK8-4" target="IYTHiTb0G3vbG2GKmtK8-26">
          <mxGeometry relative="1" as="geometry" />
        </mxCell>
        <mxCell id="IYTHiTb0G3vbG2GKmtK8-4" value="Program Counter" style="shape=process;whiteSpace=wrap;html=1;backgroundOutline=1;" vertex="1" parent="1">
          <mxGeometry x="530" y="140" width="110" height="40" as="geometry" />
        </mxCell>
        <mxCell id="IYTHiTb0G3vbG2GKmtK8-23" style="edgeStyle=orthogonalEdgeStyle;rounded=0;orthogonalLoop=1;jettySize=auto;html=1;exitX=1;exitY=0.5;exitDx=0;exitDy=0;entryX=0.013;entryY=0.192;entryDx=0;entryDy=0;entryPerimeter=0;shape=flexArrow;" edge="1" parent="1" source="IYTHiTb0G3vbG2GKmtK8-5" target="IYTHiTb0G3vbG2GKmtK8-2">
          <mxGeometry relative="1" as="geometry" />
        </mxCell>
        <mxCell id="IYTHiTb0G3vbG2GKmtK8-31" style="edgeStyle=orthogonalEdgeStyle;rounded=0;orthogonalLoop=1;jettySize=auto;html=1;exitX=0;exitY=0.75;exitDx=0;exitDy=0;entryX=1.153;entryY=0.294;entryDx=0;entryDy=0;entryPerimeter=0;" edge="1" parent="1" source="IYTHiTb0G3vbG2GKmtK8-5" target="IYTHiTb0G3vbG2GKmtK8-27">
          <mxGeometry relative="1" as="geometry" />
        </mxCell>
        <mxCell id="IYTHiTb0G3vbG2GKmtK8-32" style="edgeStyle=orthogonalEdgeStyle;rounded=0;orthogonalLoop=1;jettySize=auto;html=1;exitX=0;exitY=0.5;exitDx=0;exitDy=0;entryX=1.119;entryY=0.277;entryDx=0;entryDy=0;entryPerimeter=0;" edge="1" parent="1" source="IYTHiTb0G3vbG2GKmtK8-5" target="IYTHiTb0G3vbG2GKmtK8-26">
          <mxGeometry relative="1" as="geometry" />
        </mxCell>
        <mxCell id="IYTHiTb0G3vbG2GKmtK8-5" value="Stack Pointer" style="shape=process;whiteSpace=wrap;html=1;backgroundOutline=1;" vertex="1" parent="1">
          <mxGeometry x="530" y="240" width="110" height="30" as="geometry" />
        </mxCell>
        <mxCell id="IYTHiTb0G3vbG2GKmtK8-22" style="edgeStyle=orthogonalEdgeStyle;rounded=0;orthogonalLoop=1;jettySize=auto;html=1;exitX=1;exitY=0.5;exitDx=0;exitDy=0;entryX=-0.005;entryY=0.813;entryDx=0;entryDy=0;entryPerimeter=0;shape=flexArrow;" edge="1" parent="1" source="IYTHiTb0G3vbG2GKmtK8-7" target="IYTHiTb0G3vbG2GKmtK8-2">
          <mxGeometry relative="1" as="geometry" />
        </mxCell>
        <mxCell id="IYTHiTb0G3vbG2GKmtK8-33" style="edgeStyle=orthogonalEdgeStyle;rounded=0;orthogonalLoop=1;jettySize=auto;html=1;exitX=0;exitY=0.75;exitDx=0;exitDy=0;entryX=1.153;entryY=0.404;entryDx=0;entryDy=0;entryPerimeter=0;" edge="1" parent="1" source="IYTHiTb0G3vbG2GKmtK8-7" target="IYTHiTb0G3vbG2GKmtK8-27">
          <mxGeometry relative="1" as="geometry" />
        </mxCell>
        <mxCell id="IYTHiTb0G3vbG2GKmtK8-34" style="edgeStyle=orthogonalEdgeStyle;rounded=0;orthogonalLoop=1;jettySize=auto;html=1;exitX=0;exitY=0.5;exitDx=0;exitDy=0;entryX=1.084;entryY=0.389;entryDx=0;entryDy=0;entryPerimeter=0;" edge="1" parent="1" source="IYTHiTb0G3vbG2GKmtK8-7" target="IYTHiTb0G3vbG2GKmtK8-26">
          <mxGeometry relative="1" as="geometry" />
        </mxCell>
        <mxCell id="IYTHiTb0G3vbG2GKmtK8-7" value="RAM pointer" style="shape=process;whiteSpace=wrap;html=1;backgroundOutline=1;" vertex="1" parent="1">
          <mxGeometry x="530" y="290" width="110" height="30" as="geometry" />
        </mxCell>
        <mxCell id="IYTHiTb0G3vbG2GKmtK8-26" value="B BUS" style="rounded=0;whiteSpace=wrap;html=1;horizontal=0;" vertex="1" parent="1">
          <mxGeometry x="460" y="130" width="20" height="450" as="geometry" />
        </mxCell>
        <mxCell id="IYTHiTb0G3vbG2GKmtK8-27" value="A BUS" style="rounded=0;whiteSpace=wrap;html=1;horizontal=0;" vertex="1" parent="1">
          <mxGeometry x="420" y="130" width="20" height="450" as="geometry" />
        </mxCell>
        <mxCell id="IYTHiTb0G3vbG2GKmtK8-28" value="MAIN BUS" style="rounded=0;whiteSpace=wrap;html=1;horizontal=0;" vertex="1" parent="1">
          <mxGeometry x="380" y="130" width="20" height="450" as="geometry" />
        </mxCell>
        <mxCell id="IYTHiTb0G3vbG2GKmtK8-40" value="" style="endArrow=classic;startArrow=classic;html=1;rounded=0;exitX=1.013;exitY=0.261;exitDx=0;exitDy=0;exitPerimeter=0;entryX=0;entryY=0.25;entryDx=0;entryDy=0;" edge="1" parent="1" source="IYTHiTb0G3vbG2GKmtK8-28" target="IYTHiTb0G3vbG2GKmtK8-5">
          <mxGeometry width="50" height="50" relative="1" as="geometry">
            <mxPoint x="400" y="251" as="sourcePoint" />
            <mxPoint x="527" y="250" as="targetPoint" />
          </mxGeometry>
        </mxCell>
        <mxCell id="IYTHiTb0G3vbG2GKmtK8-42" value="" style="endArrow=classic;startArrow=classic;html=1;rounded=0;entryX=0;entryY=0.25;entryDx=0;entryDy=0;exitX=1.005;exitY=0.373;exitDx=0;exitDy=0;exitPerimeter=0;" edge="1" parent="1" source="IYTHiTb0G3vbG2GKmtK8-28" target="IYTHiTb0G3vbG2GKmtK8-7">
          <mxGeometry width="50" height="50" relative="1" as="geometry">
            <mxPoint x="400" y="300" as="sourcePoint" />
            <mxPoint x="530" y="301" as="targetPoint" />
          </mxGeometry>
        </mxCell>
        <mxCell id="IYTHiTb0G3vbG2GKmtK8-43" value="" style="endArrow=classic;startArrow=classic;html=1;rounded=0;entryX=0;entryY=0.25;entryDx=0;entryDy=0;exitX=1.005;exitY=0.373;exitDx=0;exitDy=0;exitPerimeter=0;" edge="1" parent="1">
          <mxGeometry width="50" height="50" relative="1" as="geometry">
            <mxPoint x="400" y="370" as="sourcePoint" />
            <mxPoint x="530" y="370" as="targetPoint" />
          </mxGeometry>
        </mxCell>
        <mxCell id="IYTHiTb0G3vbG2GKmtK8-44" value="" style="rounded=0;whiteSpace=wrap;html=1;" vertex="1" parent="1">
          <mxGeometry x="380" y="380" width="120" height="60" as="geometry" />
        </mxCell>
      </root>
    </mxGraphModel>
  </diagram>
</mxfile>
